# xmcd
#
# Track frame offsets:
#	150
#	23867
#	31906
#	48079
#	63801
#	80509
#	96539
#	109026
#	132056
#	152297
#	174181
#	192679
#	209669
#	231368
#	240612
#	256567
#	282312
#	295730
#
# Disc length: 4239 seconds
# Revision: 0
# Processed by: cddbd v1.5.2PL0 Copyright (c) Steve Scherf et al.
# Submitted via: dBpowerAMP V12.0
#
DISCID=f0108d12
DTITLE=Eric Bibb - Eric Bibb In 50 Songs
DYEAR=2014
DGENRE=Blues
TTITLE0=In My Father's House
TTITLE1=Guru Man Blues
TTITLE2=Heading Home
TTITLE3=Champagne Habit
TTITLE4=Too Much Stuff
TTITLE5=Destiny Blues
TTITLE6=Sittin' In A Hotel Room
TTITLE7=Come Back Baby
TTITLE8=Saucer 'n' Cup
TTITLE9=Sinner Man
TTITLE10=Right On Time
TTITLE11=In My Time
TTITLE12=For You
TTITLE13=If I Stayed
TTITLE14=99 1/2 Won't Do
TTITLE15=No More Cane On The Brazos
TTITLE16=Boll Weevil
TTITLE17=Kokomo
EXTD=
EXTT0=
EXTT1=
EXTT2=
EXTT3=
EXTT4=
EXTT5=
EXTT6=
EXTT7=
EXTT8=
EXTT9=
EXTT10=
EXTT11=
EXTT12=
EXTT13=
EXTT14=
EXTT15=
EXTT16=
EXTT17=
PLAYORDER=
